<svg width="72" height="40" viewBox="0 0 72 40" fill="none" xmlns="http://www.w3.org/2000/svg">
<path fill-rule="evenodd" clip-rule="evenodd" d="M21.0855 39.6924V27.6074H24.294V39.6924H21.0855ZM35.7001 30.5346C35.6541 30.5213 34.343 30.1698 33.266 30.1698C32.018 30.1698 31.34 30.5751 31.34 31.15C31.34 31.8791 32.2561 32.1338 32.7681 32.2911L33.626 32.5565C35.647 33.18 36.567 34.5225 36.567 35.9807C36.567 38.9878 33.843 39.9992 31.46 39.9992C29.804 39.9992 28.253 39.7026 28.1 39.6718V36.9158C28.375 36.9829 29.679 37.361 31.04 37.361C32.589 37.361 33.301 36.9219 33.301 36.244C33.301 35.6369 32.684 35.2864 31.912 35.0522C31.725 34.9897 31.441 34.9031 31.247 34.8432C29.514 34.3108 28.068 33.3209 28.068 31.3406C28.068 29.101 29.796 27.5982 32.666 27.5982C34.182 27.5982 35.6071 27.9553 35.6991 27.9789V30.5341L35.7001 30.5346ZM65.308 33.7979C65.308 37.2237 62.5841 39.9982 58.7901 39.9982C54.9951 39.9982 52.274 37.2237 52.274 33.7969C52.274 30.3784 54.9961 27.6008 58.7901 27.6008C62.5841 27.6008 65.308 30.3783 65.308 33.7979ZM58.7901 30.6499C56.9431 30.6499 55.571 32.0605 55.571 33.7979C55.571 35.5405 56.9431 36.9486 58.7901 36.9486C60.6341 36.9486 62.01 35.5405 62.01 33.7979C62.01 32.0605 60.6341 30.6499 58.7901 30.6499ZM16.5015 31.2443C16.3762 31.1807 15.3758 30.6058 13.8861 30.6058C11.8706 30.6058 10.4745 31.9647 10.4745 33.7985C10.4745 35.5774 11.8124 36.9936 13.8876 36.9936C15.3503 36.9936 16.3679 36.4295 16.5015 36.3588V39.5719C16.1152 39.678 15.0524 39.9982 13.6619 39.9982C10.1646 39.9982 7.09375 37.6556 7.09375 33.7969C7.09375 30.2236 9.87405 27.6008 13.663 27.6008C15.1277 27.6008 16.2088 27.9451 16.5015 28.0301V31.2443ZM48.996 31.2443C48.869 31.1807 47.8661 30.6058 46.3791 30.6058C44.3641 30.6058 42.969 31.9647 42.969 33.7985C42.969 35.5774 44.304 36.9936 46.378 36.9936C47.841 36.9936 48.859 36.4295 48.996 36.3588V39.5719C48.606 39.678 47.541 39.9982 46.16 39.9982C42.6581 39.9982 39.584 37.6556 39.584 33.7969C39.584 30.2236 42.3651 27.6008 46.16 27.6008C47.619 27.6008 48.702 27.9451 48.996 28.0301V31.2443Z" fill="#050038"/>
<path fill-rule="evenodd" clip-rule="evenodd" d="M71.3281 11.2659C71.3261 10.4374 70.6351 9.76671 69.7861 9.76771C68.9351 9.76671 68.2451 10.4374 68.2431 11.2664V14.4088C68.2291 14.9535 68.5201 15.4628 69.0031 15.7384C69.4861 16.0151 70.0841 16.0151 70.5681 15.7384C71.0511 15.4617 71.3411 14.9524 71.3271 14.4088V11.2659H71.3281ZM62.8501 7.14181C62.8501 6.31631 62.1621 5.64411 61.2901 5.64411C60.4411 5.64261 59.7521 6.31221 59.7501 7.13971V7.14081V14.4093C59.7501 15.2368 60.4381 15.9075 61.2871 15.9075H61.2901C62.1611 15.9075 62.8501 15.2378 62.8501 14.4083V7.13921V7.14131V7.14181ZM54.3571 1.49801C54.3561 0.670007 53.6661 -0.000223892 52.8171 0.000796108H52.8161C51.9671 -0.000743892 51.2771 0.668906 51.2751 1.49691V1.49741V17.3944C51.2491 17.9457 51.5371 18.4668 52.0241 18.7486C52.5121 19.031 53.1201 19.0299 53.6071 18.7461C54.0931 18.4648 54.3811 17.9457 54.3561 17.3955V1.49801H54.3571ZM45.8611 7.14181C45.8601 6.31431 45.1701 5.64411 44.3211 5.64511C43.4721 5.64361 42.7821 6.31381 42.7801 7.14131V7.14181V14.4088C42.7821 15.2363 43.4711 15.9065 44.3211 15.905C45.1701 15.9065 45.8601 15.2363 45.8611 14.4088V7.13971V7.14181ZM37.3681 11.2659C37.3661 10.4399 36.6781 9.77181 35.8311 9.77281C34.9831 9.77081 34.2931 10.4379 34.2871 11.2649V14.4093C34.2881 15.2368 34.9781 15.907 35.8271 15.9055C36.6771 15.9075 37.3671 15.2373 37.3681 14.4098V14.4093V11.2664V11.2659ZM28.8891 7.14181C28.8871 6.31071 28.1951 5.63901 27.3431 5.64001C26.4911 5.63901 25.7981 6.31071 25.7971 7.14181V14.4088C25.7981 15.2389 26.4901 15.9106 27.3421 15.9096H27.3431C28.1941 15.9111 28.8861 15.2394 28.8881 14.4093V14.4088V7.13971V7.14181H28.8891ZM20.3985 1.49801C20.3985 0.673007 19.7043 0.00284651 18.8531 0.00284651C18.0009 0.00284651 17.3067 0.671507 17.3067 1.49801V17.3944C17.3083 18.225 18.0004 18.8972 18.8526 18.8957C19.7048 18.8972 20.3969 18.225 20.3985 17.3944V1.49801ZM11.9094 7.14181C11.9079 6.31071 11.2158 5.63901 10.363 5.64001C9.51082 5.63901 8.81872 6.31071 8.81722 7.14181V14.4088C8.81872 15.2389 9.51032 15.9106 10.362 15.9096H10.3625C11.2147 15.9111 11.9063 15.2394 11.9084 14.4093V14.4088V7.13971V7.14181H11.9094ZM3.41933 11.2664C3.41933 10.442 2.72522 9.77231 1.87402 9.77231C1.02282 9.77231 0.328125 10.442 0.328125 11.2654V14.4083C0.329725 15.2389 1.02172 15.9111 1.87402 15.9096C2.72572 15.9111 3.41832 15.2394 3.41982 14.4088V11.2659L3.41933 11.2664Z" fill="#050038"/>
</svg>
