<svg width="97" height="18" viewBox="0 0 97 18" fill="none" xmlns="http://www.w3.org/2000/svg">
<path d="M91.5664 15.4306C91.5664 14.0258 92.7074 12.8862 94.1114 12.8862C95.5154 12.8862 96.6544 14.0259 96.6544 15.4306C96.6544 16.8353 95.5154 17.9742 94.1114 17.9742C92.7074 17.9742 91.5664 16.8353 91.5664 15.4306Z" fill="#050038"/>
<path d="M10.4217 8.69222C10.4217 7.08062 10.1102 5.88502 9.48745 5.10602C8.86375 4.32782 7.91925 3.93912 6.64925 3.93912H5.29825V13.7943H6.33185C7.74245 13.7943 8.77605 13.3761 9.43435 12.5368C10.0918 11.699 10.4217 10.4172 10.4217 8.69222ZM15.2395 8.52432C15.2395 11.4604 14.4502 13.7228 12.8718 15.3109C11.2933 16.8997 9.07435 17.6941 6.21405 17.6941H0.65625V0.100418H6.60205C9.36005 0.100418 11.4892 0.822618 12.9895 2.26642C14.4893 3.71092 15.2395 5.79592 15.2395 8.52432ZM30.6347 17.6939H35.0573V0.0265179H30.6347V17.6939ZM41.2702 11.1039C41.2702 12.2303 41.4173 13.0895 41.7113 13.68C42.0052 14.2712 42.4993 14.5664 43.1923 14.5664C43.8783 14.5664 44.3632 14.2712 44.6462 13.68C44.9292 13.0895 45.0693 12.2304 45.0693 11.1039C45.0693 9.98332 44.9272 9.13822 44.6403 8.56762C44.3533 7.99552 43.8633 7.70912 43.1693 7.70912C42.4902 7.70912 42.0052 7.99402 41.7113 8.56092C41.4173 9.12862 41.2702 9.97602 41.2702 11.1039ZM49.5713 11.1039C49.5713 13.25 49.0082 14.9242 47.8802 16.1242C46.7533 17.325 45.1752 17.9258 43.1472 17.9258C41.2022 17.9258 39.6543 17.3118 38.5042 16.0837C37.3542 14.8557 36.7793 13.1962 36.7793 11.1039C36.7793 8.96442 37.3423 7.30202 38.4703 6.11662C39.5983 4.93132 41.1792 4.33862 43.2162 4.33862C44.4742 4.33862 45.5872 4.61322 46.5512 5.16172C47.5172 5.71032 48.2622 6.49582 48.7852 7.51922C49.3092 8.54102 49.5713 9.73672 49.5713 11.1039ZM51.3272 17.694H55.7503V10.9324V4.57062H51.3272V17.694ZM51.3272 2.98332H55.7503V0.0258179H51.3272V2.98332ZM64.7122 14.3467C65.3092 14.3467 66.0202 14.195 66.8503 13.8939V17.1959C66.2533 17.458 65.6863 17.6458 65.1483 17.757C64.6093 17.8696 63.9762 17.9256 63.2533 17.9256C61.7682 17.9256 60.6973 17.5523 60.0403 16.8072C59.3853 16.0621 59.0573 14.918 59.0573 13.3742V7.96442H57.5082V4.57182H59.0573V1.22052L63.5143 0.445217V4.57182H66.3362V7.96442H63.5143V13.0723C63.5143 13.9219 63.9142 14.3467 64.7122 14.3467ZM74.9492 14.3467C75.5462 14.3467 76.2572 14.195 77.0872 13.8939V17.1959C76.4912 17.458 75.9233 17.6458 75.3853 17.757C74.8453 17.8696 74.2152 17.9256 73.4902 17.9256C72.0052 17.9256 70.9342 17.5523 70.2782 16.8072C69.6222 16.0621 69.2943 14.918 69.2943 13.3742V7.96442H67.7442V4.57182H69.2943V1.16972L73.7502 0.445217V4.57182H76.5742V7.96442H73.7502V13.0723C73.7502 13.9219 74.1502 14.3467 74.9492 14.3467ZM82.6682 9.50522C82.7282 8.78662 82.9343 8.26022 83.2843 7.92372C83.6363 7.58802 84.0703 7.42022 84.5903 7.42022C85.1573 7.42022 85.6082 7.60862 85.9422 7.98852C86.2782 8.36622 86.4532 8.87202 86.4682 9.50522H82.6682ZM88.9052 5.88582C87.8542 4.85512 86.3622 4.33902 84.4332 4.33902C82.4042 4.33902 80.8443 4.93172 79.7493 6.11702C78.6562 7.30242 78.1093 9.00312 78.1093 11.2191C78.1093 13.3652 78.7002 15.0202 79.8802 16.182C81.0602 17.3438 82.7172 17.9254 84.8522 17.9254C85.8763 17.9254 86.7582 17.8555 87.4982 17.7164C88.2322 17.5787 88.9443 17.3298 89.6333 16.9706L88.9543 14.0131C88.4523 14.2178 87.9753 14.3754 87.5253 14.4792C86.8743 14.6301 86.1602 14.7059 85.3822 14.7059C84.5303 14.7059 83.8573 14.4976 83.3633 14.0809C82.8703 13.6634 82.6073 13.0877 82.5773 12.3544H90.4832V10.3393C90.4832 8.40082 89.9572 6.91582 88.9052 5.88582ZM21.1094 9.50522C21.1698 8.78662 21.3752 8.26022 21.7255 7.92372C22.0767 7.58802 22.5118 7.42022 23.0323 7.42022C23.5977 7.42022 24.0484 7.60862 24.3833 7.98852C24.7198 8.36622 24.8943 8.87202 24.9098 9.50522H21.1094ZM27.3475 5.88582C26.2955 4.85512 24.8047 4.33902 22.8742 4.33902C20.8452 4.33902 19.285 4.93172 18.1917 6.11702C17.0984 7.30242 16.5507 9.00312 16.5507 11.2191C16.5507 13.3652 17.1411 15.0202 18.3221 16.182C19.5015 17.3438 21.1588 17.9254 23.2931 17.9254C24.3179 17.9254 25.1999 17.8555 25.939 17.7164C26.6738 17.5787 27.385 17.3298 28.0755 16.9706L27.3952 14.0131C26.8938 14.2178 26.4167 14.3754 25.9669 14.4792C25.3146 14.6301 24.6013 14.7059 23.8236 14.7059C22.9718 14.7059 22.2982 14.4976 21.8049 14.0809C21.3108 13.6634 21.0488 13.0877 21.0186 12.3544H28.9243V10.3393C28.9243 8.40082 28.3987 6.91582 27.3474 5.88582" fill="#050038"/>
</svg>
