<svg width="28" height="28" viewBox="0 0 28 28" fill="none" xmlns="http://www.w3.org/2000/svg">
<path fill-rule="evenodd" clip-rule="evenodd" d="M3.49951 7.875C3.49951 7.39175 3.89126 7 4.37451 7H23.6245C24.1078 7 24.4995 7.39175 24.4995 7.875C24.4995 8.35825 24.1078 8.75 23.6245 8.75H4.37451C3.89126 8.75 3.49951 8.35825 3.49951 7.875ZM3.49951 14C3.49951 13.5168 3.89126 13.125 4.37451 13.125H23.6245C24.1078 13.125 24.4995 13.5168 24.4995 14C24.4995 14.4832 24.1078 14.875 23.6245 14.875H4.37451C3.89126 14.875 3.49951 14.4832 3.49951 14ZM13.1245 20.125C13.1245 19.6418 13.5163 19.25 13.9995 19.25H23.6245C24.1078 19.25 24.4995 19.6418 24.4995 20.125C24.4995 20.6082 24.1078 21 23.6245 21H13.9995C13.5163 21 13.1245 20.6082 13.1245 20.125Z" fill="black"/>
</svg>
