<svg width="32" height="32" viewBox="0 0 32 32" fill="none" xmlns="http://www.w3.org/2000/svg">
<g id="instagram">
<path id="Vector" d="M23.1198 7.28008C22.8034 7.28008 22.494 7.37392 22.2309 7.54973C21.9678 7.72554 21.7627 7.97543 21.6416 8.26779C21.5205 8.56015 21.4888 8.88186 21.5506 9.19223C21.6123 9.50259 21.7647 9.78769 21.9885 10.0115C22.2122 10.2352 22.4973 10.3876 22.8077 10.4493C23.1181 10.5111 23.4398 10.4794 23.7321 10.3583C24.0245 10.2372 24.2744 10.0321 24.4502 9.76899C24.626 9.50588 24.7198 9.19653 24.7198 8.88008C24.7198 8.45573 24.5513 8.04877 24.2512 7.74871C23.9511 7.44865 23.5442 7.28008 23.1198 7.28008ZM29.2532 10.5067C29.2272 9.40048 29.02 8.30595 28.6398 7.26675C28.3008 6.37759 27.7731 5.57245 27.0932 4.90675C26.4329 4.22332 25.6259 3.69898 24.7332 3.37341C23.6967 2.98163 22.601 2.76969 21.4932 2.74675C20.0798 2.66675 19.6265 2.66675 15.9998 2.66675C12.3732 2.66675 11.9198 2.66675 10.5065 2.74675C9.39871 2.76969 8.30296 2.98163 7.2665 3.37341C6.37541 3.70228 5.56908 4.22616 4.9065 4.90675C4.22307 5.56698 3.69874 6.374 3.37317 7.26675C2.98138 8.30321 2.76945 9.39895 2.7465 10.5067C2.6665 11.9201 2.6665 12.3734 2.6665 16.0001C2.6665 19.6267 2.6665 20.0801 2.7465 21.4934C2.76945 22.6012 2.98138 23.697 3.37317 24.7334C3.69874 25.6262 4.22307 26.4332 4.9065 27.0934C5.56908 27.774 6.37541 28.2979 7.2665 28.6267C8.30296 29.0185 9.39871 29.2305 10.5065 29.2534C11.9198 29.3334 12.3732 29.3334 15.9998 29.3334C19.6265 29.3334 20.0798 29.3334 21.4932 29.2534C22.601 29.2305 23.6967 29.0185 24.7332 28.6267C25.6259 28.3012 26.4329 27.7768 27.0932 27.0934C27.7762 26.4302 28.3043 25.6243 28.6398 24.7334C29.02 23.6942 29.2272 22.5997 29.2532 21.4934C29.2532 20.0801 29.3332 19.6267 29.3332 16.0001C29.3332 12.3734 29.3332 11.9201 29.2532 10.5067ZM26.8532 21.3334C26.8435 22.1798 26.6902 23.0184 26.3998 23.8134C26.1869 24.3937 25.845 24.918 25.3998 25.3467C24.9674 25.7874 24.4441 26.1287 23.8665 26.3467C23.0714 26.6371 22.2329 26.7904 21.3865 26.8001C20.0532 26.8667 19.5598 26.8801 16.0532 26.8801C12.5465 26.8801 12.0532 26.8801 10.7198 26.8001C9.84102 26.8165 8.96596 26.6812 8.13317 26.4001C7.58088 26.1708 7.08165 25.8305 6.6665 25.4001C6.22396 24.9717 5.88629 24.447 5.67984 23.8667C5.35431 23.0603 5.17376 22.2027 5.1465 21.3334C5.1465 20.0001 5.0665 19.5067 5.0665 16.0001C5.0665 12.4934 5.0665 12.0001 5.1465 10.6667C5.15248 9.80149 5.31044 8.94401 5.61317 8.13341C5.8479 7.57063 6.20819 7.06896 6.6665 6.66675C7.07159 6.20831 7.57222 5.84421 8.13317 5.60008C8.9459 5.30681 9.8025 5.15352 10.6665 5.14675C11.9998 5.14675 12.4932 5.06675 15.9998 5.06675C19.5065 5.06675 19.9998 5.06675 21.3332 5.14675C22.1795 5.15646 23.0181 5.30974 23.8132 5.60008C24.4191 5.82495 24.9629 6.19054 25.3998 6.66675C25.8368 7.07632 26.1782 7.57706 26.3998 8.13341C26.6962 8.94533 26.8496 9.80245 26.8532 10.6667C26.9198 12.0001 26.9332 12.4934 26.9332 16.0001C26.9332 19.5067 26.9198 20.0001 26.8532 21.3334ZM15.9998 9.16008C14.6476 9.16272 13.3265 9.56612 12.2034 10.3193C11.0803 11.0725 10.2057 12.1417 9.69002 13.3918C9.17436 14.6418 9.0408 16.0167 9.30623 17.3427C9.57166 18.6686 10.2242 19.8861 11.1813 20.8414C12.1384 21.7966 13.3572 22.4468 14.6836 22.7096C16.0101 22.9725 17.3847 22.8362 18.6338 22.3181C19.8829 21.8 20.9503 20.9233 21.7013 19.7988C22.4523 18.6742 22.8532 17.3523 22.8532 16.0001C22.8549 15.1002 22.6788 14.2089 22.3348 13.3774C21.9909 12.5458 21.4859 11.7905 20.849 11.1548C20.2121 10.5191 19.4558 10.0157 18.6236 9.67332C17.7914 9.33099 16.8997 9.15656 15.9998 9.16008ZM15.9998 20.4401C15.1217 20.4401 14.2633 20.1797 13.5331 19.6918C12.8029 19.2039 12.2339 18.5105 11.8978 17.6992C11.5618 16.8879 11.4738 15.9952 11.6452 15.1339C11.8165 14.2726 12.2393 13.4815 12.8603 12.8605C13.4812 12.2396 14.2724 11.8167 15.1336 11.6454C15.9949 11.4741 16.8876 11.562 17.699 11.8981C18.5103 12.2341 19.2037 12.8032 19.6916 13.5333C20.1794 14.2635 20.4398 15.1219 20.4398 16.0001C20.4398 16.5831 20.325 17.1605 20.1019 17.6992C19.8787 18.2379 19.5517 18.7273 19.1394 19.1396C18.7271 19.5519 18.2376 19.879 17.699 20.1021C17.1603 20.3252 16.5829 20.4401 15.9998 20.4401Z" fill="black"/>
</g>
</svg>
