<svg width="103" height="22" viewBox="0 0 103 22" fill="none" xmlns="http://www.w3.org/2000/svg">
<path d="M17.7029 16.028C17.5585 15.8078 17.3699 15.6174 17.1479 15.468C16.9259 15.3185 16.6751 15.2129 16.41 15.1574C15.396 14.9314 14.5165 14.3298 13.9638 13.4843C13.4111 12.6387 13.2301 11.6178 13.4603 10.6447C13.5488 10.2686 13.5194 9.8758 13.3758 9.51565C13.2322 9.1555 12.9807 8.84406 12.653 8.62045C12.3252 8.39685 11.9359 8.27104 11.5338 8.2588C11.1317 8.24658 10.7348 8.34847 10.393 8.55172C10.0511 8.75498 9.77953 9.05049 9.61234 9.40118C9.44517 9.75188 9.38983 10.1421 9.4533 10.5228C9.51675 10.9035 9.69619 11.2578 9.96905 11.5411C10.2419 11.8244 10.596 12.0242 10.9869 12.1152C11.4927 12.2246 11.9709 12.4285 12.3942 12.7153C12.8175 13.0021 13.1777 13.3661 13.4539 13.7866C13.7301 14.207 13.9171 14.6756 14.004 15.1654C14.0909 15.6552 14.0761 16.1567 13.9605 16.641C13.892 16.9532 13.9042 17.2768 13.996 17.5834C14.0879 17.8901 14.2567 18.1705 14.4876 18.4004C14.7184 18.6302 15.0045 18.8025 15.3207 18.9021C15.637 19.0017 15.9738 19.0257 16.302 18.9719C16.6301 18.9182 16.9396 18.7883 17.2034 18.5937C17.4671 18.3991 17.6772 18.1456 17.8154 17.8553C17.9535 17.565 18.0155 17.2468 17.9959 16.9283C17.9762 16.6098 17.8757 16.3007 17.7029 16.028Z" fill="#414042"/>
<path d="M5.15764 13.8565C5.51475 14.0433 5.92191 14.1235 6.32692 14.087C6.73195 14.0504 7.11631 13.8987 7.43074 13.6513C7.74518 13.4039 7.97532 13.0722 8.09161 12.6986C8.20793 12.325 8.20511 11.9266 8.08351 11.5545C7.9294 11.0801 7.8745 10.5812 7.92197 10.0864C7.96944 9.59159 8.11831 9.11064 8.36013 8.67112C8.60192 8.23159 8.93185 7.84212 9.33101 7.52503C9.73017 7.20793 10.1907 6.96949 10.6862 6.82332C11.0705 6.70796 11.4106 6.48622 11.6637 6.18604C11.9168 5.88586 12.0716 5.52063 12.1087 5.13631C12.1457 4.75198 12.0633 4.36574 11.8718 4.02622C11.6804 3.68668 11.3884 3.409 11.0327 3.22813C10.6769 3.04727 10.2733 2.97127 9.87261 3.00975C9.4719 3.0482 9.09202 3.19938 8.78076 3.44429C8.4695 3.68917 8.24078 4.01683 8.12336 4.38601C8.00597 4.75519 8.00512 5.14941 8.12094 5.51905C8.42497 6.47333 8.32215 7.50421 7.83502 8.38601C7.34787 9.26781 6.51608 9.92874 5.52168 10.2242C5.12912 10.3333 4.77976 10.5528 4.51885 10.8543C4.25793 11.1559 4.09746 11.5255 4.05824 11.9154C4.01904 12.3054 4.10286 12.6976 4.29888 13.0413C4.4949 13.3851 4.79406 13.6645 5.15764 13.8435V13.8565Z" fill="#414042"/>
<path d="M10.4064 13.537C10.135 13.5461 9.86819 13.6071 9.62165 13.7163C9.37511 13.8254 9.1538 13.9807 8.97063 14.1729C8.26004 14.9013 7.27741 15.3304 6.2376 15.3665C5.19777 15.4025 4.18534 15.0425 3.42168 14.3652C3.22436 14.1878 2.99222 14.0497 2.73873 13.959C2.48527 13.8683 2.2155 13.8269 1.94514 13.837C1.61236 13.852 1.28844 13.9449 1.00173 14.1075C0.714995 14.2701 0.474181 14.4975 0.300263 14.7699C0.126321 15.0422 0.0246004 15.3512 0.00392627 15.6699C-0.0167228 15.9886 0.0442997 16.3072 0.181719 16.5981C0.319138 16.889 0.528728 17.1432 0.792242 17.3386C1.05576 17.534 1.36514 17.6646 1.69343 17.719C2.02171 17.7734 2.35892 17.75 2.67558 17.6508C2.99227 17.5515 3.27878 17.3796 3.51012 17.1498C3.86206 16.7846 4.28569 16.4896 4.75677 16.2816C5.22787 16.0736 5.73715 15.9566 6.25545 15.9376C6.77375 15.9185 7.29091 15.9976 7.77726 16.1703C8.26361 16.3431 8.70962 16.6062 9.08973 16.9444C9.33719 17.1587 9.63568 17.3116 9.95906 17.3898C10.2825 17.4679 10.6209 17.469 10.9448 17.3928C11.2687 17.3166 11.5682 17.1655 11.8171 16.9527C12.066 16.7399 12.2567 16.4719 12.3725 16.1722C12.4883 15.8724 12.5258 15.5501 12.4815 15.2332C12.4373 14.9164 12.3127 14.6148 12.1187 14.3548C11.9247 14.0948 11.6672 13.8843 11.3687 13.7418C11.0702 13.5992 10.7398 13.5289 10.4064 13.537Z" fill="#414042"/>
<path d="M38.0444 7.24219L37.0425 8.19141C36.3218 7.48242 35.5308 6.94629 34.6694 6.58301C33.814 6.21387 32.979 6.0293 32.1646 6.0293C31.1509 6.0293 30.1841 6.27832 29.2642 6.77637C28.3501 7.27441 27.6411 7.95117 27.1372 8.80664C26.6333 9.65625 26.3813 10.5557 26.3813 11.5049C26.3813 12.4775 26.6421 13.4033 27.1636 14.2822C27.6851 15.1553 28.4058 15.8438 29.3257 16.3477C30.2456 16.8457 31.2534 17.0947 32.3491 17.0947C33.6792 17.0947 34.8042 16.7197 35.7241 15.9697C36.644 15.2197 37.189 14.2471 37.3589 13.0518H33.2368V11.8037H38.8091C38.7974 13.8018 38.2026 15.3896 37.0249 16.5674C35.853 17.7393 34.2827 18.3252 32.314 18.3252C29.9233 18.3252 28.0308 17.5107 26.6362 15.8818C25.564 14.6279 25.0278 13.1777 25.0278 11.5312C25.0278 10.3066 25.3354 9.16699 25.9507 8.1123C26.5659 7.05762 27.4097 6.23437 28.4819 5.64258C29.5542 5.04492 30.7671 4.74609 32.1206 4.74609C33.2163 4.74609 34.2476 4.94531 35.2144 5.34375C36.1812 5.73633 37.1245 6.36914 38.0444 7.24219ZM49.1187 14.8271L50.1558 15.3721C49.8159 16.04 49.4233 16.5791 48.978 16.9893C48.5327 17.3994 48.0317 17.7129 47.4751 17.9297C46.9185 18.1406 46.2886 18.2461 45.5854 18.2461C44.0269 18.2461 42.8081 17.7363 41.9292 16.7168C41.0503 15.6914 40.6108 14.5342 40.6108 13.2451C40.6108 12.0322 40.9829 10.9512 41.7271 10.002C42.6704 8.79492 43.9331 8.19141 45.5151 8.19141C47.144 8.19141 48.4448 8.80957 49.4175 10.0459C50.1089 10.9189 50.4604 12.0088 50.4722 13.3154H41.8765C41.8999 14.4287 42.2544 15.3428 42.9399 16.0576C43.6255 16.7666 44.4722 17.1211 45.48 17.1211C45.9663 17.1211 46.438 17.0361 46.895 16.8662C47.3579 16.6963 47.7505 16.4707 48.0728 16.1895C48.395 15.9082 48.7437 15.4541 49.1187 14.8271ZM49.1187 12.252C48.9546 11.5957 48.7144 11.0713 48.3979 10.6787C48.0874 10.2861 47.6743 9.96973 47.1587 9.72949C46.6431 9.48926 46.1011 9.36914 45.5327 9.36914C44.5952 9.36914 43.7896 9.6709 43.1157 10.2744C42.6235 10.7139 42.2515 11.373 41.9995 12.252H49.1187ZM52.7749 8.4375H54.0054V10.1514C54.4976 9.49512 55.0425 9.00586 55.6401 8.68359C56.2378 8.35547 56.8882 8.19141 57.5913 8.19141C58.3062 8.19141 58.939 8.37305 59.4897 8.73633C60.0464 9.09961 60.4565 9.58887 60.7202 10.2041C60.9839 10.8193 61.1157 11.7773 61.1157 13.0781V18H59.894V13.4385C59.894 12.3369 59.8472 11.6016 59.7534 11.2324C59.6069 10.5996 59.3315 10.125 58.9272 9.80859C58.5229 9.48633 57.9956 9.3252 57.3452 9.3252C56.6011 9.3252 55.9331 9.57129 55.3413 10.0635C54.7554 10.5557 54.3687 11.165 54.1812 11.8916C54.064 12.3662 54.0054 13.2334 54.0054 14.4932V18H52.7749V8.4375ZM63.7788 8.4375H65.0005V10.1953C65.4868 9.52734 66.0464 9.02637 66.6792 8.69238C67.312 8.3584 68.0181 8.19141 68.7974 8.19141C70.1567 8.19141 71.3198 8.68066 72.2866 9.65918C73.2534 10.6377 73.7368 11.8154 73.7368 13.1924C73.7368 14.5986 73.2563 15.7939 72.2954 16.7783C71.3403 17.7568 70.186 18.2461 68.8325 18.2461C68.0708 18.2461 67.3706 18.0879 66.7319 17.7715C66.0933 17.4551 65.5161 16.9834 65.0005 16.3564V21.498H63.7788V8.4375ZM68.7007 9.37793C67.6343 9.37793 66.7349 9.75 66.0024 10.4941C65.2759 11.2383 64.9126 12.1641 64.9126 13.2715C64.9126 13.998 65.0737 14.6514 65.396 15.2314C65.7241 15.8115 66.1899 16.2715 66.7935 16.6113C67.4028 16.9512 68.0444 17.1211 68.7183 17.1211C69.3804 17.1211 70.0015 16.9512 70.5815 16.6113C71.1675 16.2656 71.6333 15.7852 71.979 15.1699C72.3247 14.5547 72.4976 13.9102 72.4976 13.2363C72.4976 12.5566 72.3247 11.9121 71.979 11.3027C71.6392 10.6934 71.1792 10.2217 70.5991 9.8877C70.019 9.54785 69.3862 9.37793 68.7007 9.37793ZM76.479 4.5C76.7603 4.5 77.0005 4.59961 77.1997 4.79883C77.3989 4.99805 77.4985 5.23828 77.4985 5.51953C77.4985 5.79492 77.3989 6.03223 77.1997 6.23145C77.0005 6.43066 76.7603 6.53027 76.479 6.53027C76.2036 6.53027 75.9663 6.43066 75.7671 6.23145C75.5679 6.03223 75.4683 5.79492 75.4683 5.51953C75.4683 5.23828 75.5679 4.99805 75.7671 4.79883C75.9663 4.59961 76.2036 4.5 76.479 4.5ZM75.8638 8.4375H77.103V18H75.8638V8.4375ZM78.562 8.4375H80.0386L82.5698 11.9795L85.1011 8.4375H86.5776L83.3081 12.9814L86.9907 18H85.4966L82.5698 13.9834L79.687 18H78.2192L81.8403 12.9814L78.562 8.4375ZM96.3511 14.8271L97.3882 15.3721C97.0483 16.04 96.6558 16.5791 96.2104 16.9893C95.7651 17.3994 95.2642 17.7129 94.7075 17.9297C94.1509 18.1406 93.521 18.2461 92.8179 18.2461C91.2593 18.2461 90.0405 17.7363 89.1616 16.7168C88.2827 15.6914 87.8433 14.5342 87.8433 13.2451C87.8433 12.0322 88.2153 10.9512 88.9595 10.002C89.9028 8.79492 91.1655 8.19141 92.7476 8.19141C94.3765 8.19141 95.6772 8.80957 96.6499 10.0459C97.3413 10.9189 97.6929 12.0088 97.7046 13.3154H89.1089C89.1323 14.4287 89.4868 15.3428 90.1724 16.0576C90.8579 16.7666 91.7046 17.1211 92.7124 17.1211C93.1987 17.1211 93.6704 17.0361 94.1274 16.8662C94.5903 16.6963 94.9829 16.4707 95.3052 16.1895C95.6274 15.9082 95.9761 15.4541 96.3511 14.8271ZM96.3511 12.252C96.187 11.5957 95.9468 11.0713 95.6304 10.6787C95.3198 10.2861 94.9067 9.96973 94.3911 9.72949C93.8755 9.48926 93.3335 9.36914 92.7651 9.36914C91.8276 9.36914 91.022 9.6709 90.3481 10.2744C89.856 10.7139 89.4839 11.373 89.2319 12.252H96.3511ZM99.8228 4.74609H101.053V18H99.8228V4.74609Z" fill="black"/>
</svg>
