<svg width="74" height="64" viewBox="0 0 74 64" fill="none" xmlns="http://www.w3.org/2000/svg">
<g clip-path="url(#clip0_1_78)">
<path d="M20.7314 32.9162C20.7314 29.2245 20.7371 25.5299 20.7229 21.841C20.7229 21.3278 21.0621 21.0086 21.5753 21.0086C22.5246 21.0029 23.4796 21 24.4289 21.0086C24.9677 21.0143 25.2813 21.3421 25.2756 21.8467C25.2613 25.1137 25.267 28.3863 25.267 31.6533V31.8329C25.2727 32.1949 25.4324 32.4601 25.7659 32.6026C26.088 32.7394 26.3902 32.6682 26.6525 32.3888C27.6103 31.3625 28.5653 30.3334 29.5175 29.3043C30.1019 28.6714 30.6949 28.0471 31.2736 27.4114C31.4931 27.1719 31.7468 27.0579 32.0746 27.0636C33.2691 27.0721 34.4693 27.0721 35.6637 27.0636C36.0172 27.0636 36.2966 27.1719 36.4449 27.4997C36.5959 27.839 36.5247 28.1412 36.271 28.4177C34.4778 30.4018 32.6904 32.3888 30.9001 34.3729C30.7576 34.5326 30.6179 34.6979 30.5067 34.8804C30.3072 35.2025 30.3072 35.5189 30.4925 35.8468C30.692 36.2003 30.9742 36.4853 31.2536 36.7733C33.423 39.0026 35.5982 41.2319 37.7733 43.4555C38.0356 43.7263 38.1125 44.0228 37.9814 44.3706C37.856 44.6955 37.608 44.8438 37.2003 44.8438C35.8718 44.8438 34.5405 44.8381 33.2121 44.8438C32.9128 44.8438 32.6818 44.7497 32.468 44.5216C30.5381 42.4948 28.5938 40.4793 26.6553 38.4609C26.3788 38.1701 26.0709 38.096 25.7516 38.23C25.4295 38.3583 25.2613 38.632 25.2613 39.0282V43.9971C25.2613 44.533 24.9905 44.8096 24.4602 44.8124H21.5411C20.9567 44.8124 20.7286 44.5815 20.7286 44.0057L20.7314 32.9162ZM38.8452 29.2016C38.8452 26.7585 38.8537 24.3126 38.8366 21.8695C38.8309 21.3164 39.1531 21 39.7147 21C40.6383 21.0057 41.5563 21 42.4771 21C43.0159 21 43.3237 21.3022 43.3237 21.8381C43.3294 23.2635 43.3294 24.6917 43.3323 26.1171C43.3323 26.7329 43.6487 27.0522 44.2588 27.0522H48.0931C48.4979 27.0522 48.763 27.2717 48.8428 27.6679C48.8827 27.8589 48.8685 28.0499 48.8742 28.2466V30.6099C48.8742 31.2285 48.5977 31.5051 47.979 31.5051C46.7532 31.5051 45.5274 31.4994 44.3016 31.4994C43.6744 31.4994 43.3522 31.8158 43.3465 32.4344C43.3408 33.6916 43.3209 34.9431 43.338 36.2003C43.3637 38.116 44.8318 39.8806 46.739 40.331C47.3006 40.465 47.8707 40.4878 48.4409 40.408C48.9055 40.3424 49.2419 40.5904 49.2961 41.058C49.413 42.0529 49.5184 43.0507 49.6211 44.0456C49.661 44.4247 49.3845 44.7725 48.9939 44.8352C47.942 45.0148 46.89 44.9521 45.8552 44.7183C42.1606 43.8916 39.4467 40.9382 38.9165 37.1952C38.8623 36.8246 38.8452 36.454 38.8452 36.0862V29.2016ZM71.6489 40.8755C71.6489 40.5363 71.3895 40.2997 71.0503 40.2826C70.8193 40.274 70.5913 40.2655 70.3604 40.2455C69.1802 40.1571 68.5729 39.6041 68.3591 38.441C68.1938 37.5544 68.1995 36.6535 68.1938 35.7527C68.1852 33.1671 68.1881 30.5814 68.1881 27.9958C68.1881 27.9188 68.1881 27.8475 68.1824 27.7734C68.151 27.3544 67.8488 27.055 67.4241 27.055C66.4292 27.0493 65.4314 27.0493 64.4365 27.055C63.9861 27.055 63.6668 27.3772 63.6468 27.8219C63.6411 27.9302 63.6468 28.0414 63.6468 28.1697C63.5613 28.1241 63.4957 28.0927 63.433 28.0613C61.637 27.1177 59.7327 26.8127 57.7315 27.1462C52.6372 28.0015 49.316 33.1043 50.5818 38.1103C52.1896 44.4618 59.804 46.9904 64.8983 42.8568C65.018 42.7599 65.0665 42.7627 65.1606 42.8939C65.6851 43.6436 66.3779 44.1853 67.2388 44.5131C68.1881 44.8751 69.1773 44.9236 70.1808 44.8523C70.5371 44.8267 70.8906 44.7754 71.2156 44.6129C71.4465 44.496 71.6347 44.3221 71.6404 44.057C71.6603 42.9965 71.6546 41.936 71.6489 40.8755ZM59.2538 40.4165C56.7765 40.408 54.8066 38.3925 54.8152 35.8667C54.8237 33.4778 56.8478 31.4937 59.2766 31.4994C61.7682 31.5051 63.7352 33.5063 63.7295 36.0378C63.721 38.4239 61.6827 40.4194 59.2538 40.4165ZM9.60491 27.018C4.87265 27.0265 0.761845 30.6812 0.656367 35.7584C0.548038 41.0095 4.7073 44.7668 9.3512 44.8837C14.3172 45.0091 18.4309 41.0893 18.5164 36.1376C18.5991 31.0974 14.6508 27.075 9.60491 27.018ZM9.57356 40.4165C7.13045 40.4165 5.12637 38.4096 5.12066 35.958C5.11496 33.5034 7.1162 31.4994 9.58211 31.4908C12.0423 31.4851 14.035 33.4835 14.035 35.9523C14.035 38.421 12.0423 40.4165 9.57356 40.4165Z" fill="#050038"/>
</g>
<defs>
<clipPath id="clip0_1_78">
<rect width="73" height="64" fill="white" transform="translate(0.654297)"/>
</clipPath>
</defs>
</svg>
