<svg width="54" height="64" viewBox="0 0 54 64" fill="none" xmlns="http://www.w3.org/2000/svg">
<g clip-path="url(#clip0_1_66)">
<path d="M24.4868 36.6874H30.9592V34.5268H30.2485C30.2485 35.3533 29.644 35.9626 28.7207 35.9626H27.7242V32.737H28.7987V32.0215H24.4868V32.737H25.5731V35.9626H24.4868V36.6852V36.6874Z" fill="#050038"/>
<path d="M34.0721 36.6898L36.5892 36.6922L38.7262 32.7393H39.7982V32.0215H36.575V32.7393H37.5077L35.9492 35.6154L34.3719 32.7393H35.503V32.0215H30.8276L30.8252 32.7393H31.8972L34.0721 36.6898Z" fill="#050038"/>
<path d="M11.5987 32.0215H6.92326L6.9209 32.7393H7.99058L10.1677 36.6898L12.6849 36.6922L14.8219 32.7393H15.8939V32.0215H12.6707V32.7393H13.6011L12.045 35.6154L10.4676 32.7393H11.5987V32.0215Z" fill="#050038"/>
<path d="M16.5203 34.3594C16.5203 35.7338 17.6278 36.8271 19.8475 36.8271C22.0671 36.8271 23.1627 35.7338 23.1627 34.3594C23.1627 33.0041 22.001 31.9226 19.8333 31.9226C17.668 31.9226 16.5181 33.0041 16.5181 34.3594H16.5203ZM20.9903 34.3713C20.9762 35.219 20.6243 36.1022 19.812 36.0879C19.021 36.0738 18.6739 35.2002 18.6881 34.3312C18.7047 33.4315 19.1343 32.6475 19.8759 32.6593C20.6173 32.6735 21.0068 33.4717 20.9927 34.3713H20.9903Z" fill="#050038"/>
<path d="M40.4163 34.3594C40.4163 35.7338 41.5238 36.8271 43.7434 36.8271C45.9631 36.8271 47.0587 35.7338 47.0587 34.3594C47.0587 33.0041 45.8969 31.9226 43.7315 31.9226C41.5663 31.9226 40.4163 33.0041 40.4163 34.3594ZM43.7717 32.6593C44.5108 32.6735 44.9028 33.4717 44.8862 34.3713C44.8697 35.219 44.5203 36.1022 43.7079 36.0879C42.917 36.0738 42.5698 35.2002 42.5839 34.3312C42.6004 33.4315 43.0303 32.6475 43.7717 32.6593Z" fill="#050038"/>
<path d="M48.9336 19.5162L46.2251 22.2247C48.5463 25.8068 49.897 30.0784 49.897 34.6665C49.897 47.3161 39.6418 57.5713 26.9922 57.5713C14.3426 57.5713 4.08736 47.3161 4.08736 34.6665C4.08736 22.0169 14.3426 11.7617 26.9922 11.7617C31.5897 11.7617 35.8708 13.1171 39.46 15.4501L42.1684 12.7416C37.8614 9.75454 32.631 8.00244 26.9922 8.00244C12.267 8.00244 0.328125 19.9389 0.328125 34.6665C0.328125 49.3917 12.2646 61.3306 26.9922 61.3306C41.7174 61.3306 53.6562 49.3941 53.6562 34.6665C53.6562 29.0395 51.9112 23.8186 48.9359 19.5162H48.9336Z" fill="#050038"/>
<path d="M40.4025 9.05243V9.80097C42.02 10.677 43.5406 11.7113 44.9504 12.873L41.151 16.6724C42.5843 17.7964 43.8783 19.0904 45.0048 20.5213L48.7993 16.7267C49.9635 18.1387 50.9978 19.6618 51.8738 21.2558H52.6035V9.05243H40.4001H40.4025Z" fill="#050038"/>
</g>
<defs>
<clipPath id="clip0_1_66">
<rect width="53.3281" height="63.9938" fill="white" transform="translate(0.328125 0.00317383)"/>
</clipPath>
</defs>
</svg>
