<svg width="118" height="64" viewBox="0 0 118 64" fill="none" xmlns="http://www.w3.org/2000/svg">
<path d="M67.7274 34.9478C67.7274 32.1827 66.5439 29.7397 62.5408 29.7397C60.4871 29.7397 58.8557 30.3251 57.971 30.8374L58.6194 33.0557C59.4338 32.5448 60.7333 32.124 61.9598 32.124C63.9864 32.1212 64.3184 33.2676 64.3184 34.0046V34.1821C59.8946 34.1749 57.0981 35.7035 57.0981 38.8163C57.0981 40.7183 58.5178 42.5016 60.9994 42.5016C62.5136 42.5016 63.793 41.8904 64.5574 40.9258H64.6318C64.6318 40.9258 65.1357 43.034 67.9221 42.2281C67.7803 41.3451 67.7274 40.4149 67.7274 39.2843V34.9478ZM64.4272 37.8674C64.4272 38.0907 64.4086 38.3226 64.3428 38.5215C64.088 39.3731 63.2092 40.0857 62.1158 40.0857C61.1928 40.0857 60.4685 39.5633 60.4685 38.4684C60.4685 36.794 62.3175 36.3332 64.4272 36.3447" fill="#050038"/>
<path d="M0 25.9781C0 25.9781 2.88953 37.7996 3.34894 39.7146C3.88992 41.9529 4.85884 42.7802 7.65537 42.2292L9.4615 34.8987C9.91805 33.0825 10.2286 31.7802 10.5234 29.9296H10.5735C10.7782 31.7987 11.073 33.0825 11.4465 34.9044C11.4465 34.9044 12.1836 38.2348 12.5657 39.9794C12.9378 41.724 13.9854 42.8246 16.729 42.2292L21.0283 25.9781H17.5576L16.0821 33.0081C15.6914 35.0447 15.3365 36.649 15.0603 38.5153H15.0101C14.7612 36.669 14.4448 35.1305 14.0384 33.1354L12.5099 25.9781H8.88904L7.25748 32.9522C6.79233 35.0819 6.35728 36.7893 6.0839 38.5968H6.03669C5.75476 36.9009 5.37264 34.7412 4.96758 32.6919C4.96758 32.6919 3.99868 27.6985 3.65665 25.9781" fill="#050038"/>
<path d="M30.6998 34.9478C30.6998 32.1827 29.5133 29.7397 25.5103 29.7397C23.4623 29.7397 21.8279 30.3251 20.9435 30.8374L21.5917 33.0557C22.4033 32.5448 23.7013 32.124 24.9321 32.124C26.9587 32.1212 27.2906 33.2676 27.2906 34.0046V34.1821C22.867 34.1749 20.0676 35.7035 20.0676 38.8163C20.0676 40.7183 21.493 42.5016 23.9632 42.5016C25.4917 42.5016 26.7597 41.8904 27.524 40.9258H27.6013C27.6013 40.9258 28.1079 43.034 30.8915 42.2281C30.7485 41.3451 30.6998 40.4149 30.6998 39.2843V34.9478ZM27.3966 37.8674C27.3966 38.0907 27.3781 38.3226 27.315 38.5215C27.0573 39.3731 26.1787 40.0857 25.0825 40.0857C24.165 40.0857 23.438 39.5633 23.438 38.4684C23.438 36.794 25.287 36.3332 27.3966 36.3447" fill="#050038"/>
<path d="M32.5007 25.9781V42.2234H35.8039V38.7786V25.9781H32.5007Z" fill="#050038"/>
<path d="M77.865 25.9781V37.9643C77.865 39.6187 78.1755 40.7723 78.8437 41.4792C79.4307 42.0989 80.3909 42.5025 81.5344 42.5025C82.5162 42.5025 83.4765 42.3136 83.9302 42.149L83.8902 39.5686C83.551 39.6473 83.1632 39.7146 82.6306 39.7146C81.503 39.7146 81.1308 39.0004 81.1308 37.5148V32.9265H84.0075V29.8222H81.1308V25.9781" fill="#050038"/>
<path d="M69.3279 30.0214V42.228H72.7427V35.9765C72.7427 35.6403 72.764 35.3496 72.8171 35.0805C73.0717 33.7625 74.0722 32.9281 75.5133 32.9281C75.9156 32.9281 76.1889 32.9725 76.4924 33.0197V29.8196C76.2376 29.7738 76.0644 29.7495 75.7509 29.7495C74.4729 29.7495 73.0245 30.5609 72.4135 32.3284H72.3291V30.0214" fill="#050038"/>
<path d="M37.7224 30.0214V42.228H41.0499V35.0635C41.0499 34.7271 41.0871 34.3836 41.2059 34.073C41.4764 33.3474 42.1475 32.5073 43.2252 32.5073C44.5648 32.5073 45.1974 33.6379 45.1974 35.2695V42.228H48.5163V34.9776C48.5163 34.6612 48.5607 34.2734 48.6537 33.9929C48.9199 33.17 49.647 32.5073 50.6517 32.5073C52.0055 32.5073 52.6611 33.6137 52.6611 35.5372V42.228H55.9769V35.0306C55.9769 31.2494 54.0536 29.7495 51.8695 29.7495C50.9093 29.7495 50.1451 29.9856 49.458 30.4093C48.877 30.7655 48.3675 31.2679 47.9109 31.9248H47.8609C47.3356 30.611 46.1019 29.7495 44.4904 29.7495C42.4238 29.7495 41.4849 30.7927 40.9325 31.6744H40.8824V30.0214" fill="#050038"/>
<path d="M101.879 29.4739C102.532 29.4739 103.081 29.1332 103.153 28.6953L103.8 21.3676C103.8 20.642 102.945 20.048 101.879 20.048C100.807 20.048 99.9585 20.642 99.9585 21.3676L100.611 28.6953C100.68 29.1332 101.226 29.4739 101.879 29.4739Z" fill="#050038"/>
<path d="M97.9096 31.767C98.233 31.1945 98.2143 30.5591 97.8653 30.2756L91.8256 26.0523C91.1973 25.6859 90.2571 26.1225 89.719 27.0469C89.1822 27.9701 89.291 29.0062 89.9065 29.3654L96.5928 32.4654C97.0208 32.6256 97.5804 32.3279 97.9096 31.7613" fill="#050038"/>
<path d="M105.847 31.761C106.189 32.3277 106.748 32.6255 107.165 32.4737L113.851 29.3652C114.473 28.9988 114.566 27.9726 114.04 27.0496C113.504 26.125 112.558 25.6914 111.931 26.0506L105.89 30.2697C105.555 30.5574 105.531 31.1957 105.854 31.7667" fill="#050038"/>
<path d="M101.879 38.6267C102.532 38.6267 103.081 38.9674 103.153 39.4053L103.8 46.7329C103.8 47.4586 102.945 48.0467 101.879 48.0467C100.807 48.0467 99.9585 47.4586 99.9585 46.7329L100.611 39.4053C100.68 38.9674 101.226 38.6267 101.879 38.6267Z" fill="#050038"/>
<path d="M105.847 36.3411C106.189 35.7728 106.748 35.4694 107.165 35.634L113.851 38.7368C114.473 39.096 114.566 40.1308 114.04 41.0553C113.504 41.9727 112.558 42.4092 111.931 42.05L105.89 37.8251C105.555 37.5403 105.531 36.9049 105.854 36.3411" fill="#050038"/>
<path d="M97.9096 36.3349C98.233 36.9059 98.2143 37.5399 97.8653 37.8262L91.8256 42.0438C91.1973 42.4102 90.2571 41.9722 89.719 41.0549C89.1822 40.1318 89.291 39.0956 89.9065 38.7364L96.5928 35.6336C97.0208 35.4704 97.5804 35.7709 97.9096 36.3349Z" fill="#050038"/>
<path d="M115.808 41.4064H115.891C116.004 41.4064 116.05 41.4422 116.063 41.5324C116.087 41.6326 116.1 41.6999 116.124 41.7284H116.339C116.32 41.707 116.296 41.6526 116.283 41.5267C116.259 41.4179 116.203 41.3563 116.124 41.3348V41.3148C116.233 41.2906 116.296 41.2175 116.296 41.1274C116.296 41.0458 116.259 40.9871 116.221 40.9499C116.15 40.9155 116.081 40.8883 115.93 40.8883C115.795 40.8883 115.696 40.8998 115.618 40.9185V41.7284H115.808V41.4064ZM115.814 41.0372L115.911 41.0243C116.025 41.0243 116.087 41.0772 116.087 41.1516C116.087 41.2347 116.004 41.2734 115.898 41.2734H115.814V41.0372ZM115.935 40.4877C115.466 40.4877 115.094 40.8541 115.094 41.3034C115.094 41.7643 115.466 42.1307 115.935 42.1307C116.41 42.1307 116.771 41.7643 116.771 41.3034C116.771 40.8541 116.41 40.4877 115.935 40.4877ZM115.935 40.6522C116.296 40.6522 116.564 40.9442 116.564 41.3034C116.564 41.6655 116.296 41.966 115.935 41.9603C115.575 41.9603 115.301 41.6655 115.301 41.3034C115.301 40.9442 115.575 40.6522 115.93 40.6522" fill="#050038"/>
</svg>
