<svg width="33" height="32" viewBox="0 0 33 32" fill="none" xmlns="http://www.w3.org/2000/svg">
<g id="whatsapp">
<path id="Vector" d="M22.5619 18.6666C22.2952 18.5333 20.5619 17.7333 20.2952 17.6C20.0285 17.4666 19.7619 17.4666 19.4952 17.7333C19.2285 18 18.6952 18.8 18.4285 19.0666C18.2952 19.3333 18.0285 19.3333 17.7619 19.2C16.8285 18.8 15.8952 18.2666 15.0952 17.6C14.4285 16.9333 13.7619 16.1333 13.2285 15.3333C13.0952 15.0666 13.2285 14.8 13.3619 14.6666C13.4952 14.5333 13.6285 14.2666 13.8952 14.1333C14.0285 14 14.1619 13.7333 14.1619 13.6C14.2952 13.4666 14.2952 13.2 14.1619 13.0666C14.0285 12.9333 13.3619 11.3333 13.0952 10.6666C12.9619 9.7333 12.6952 9.7333 12.4285 9.7333H11.7619C11.4952 9.7333 11.0952 9.99997 10.9619 10.1333C10.1619 10.9333 9.76188 11.8666 9.76188 12.9333C9.89522 14.1333 10.2952 15.3333 11.0952 16.4C12.5619 18.5333 14.4285 20.2666 16.6952 21.3333C17.3619 21.6 17.8952 21.8666 18.5619 22C19.2285 22.2666 19.8952 22.2666 20.6952 22.1333C21.6285 22 22.4285 21.3333 22.9619 20.5333C23.2285 20 23.2285 19.4666 23.0952 18.9333L22.5619 18.6666ZM25.8952 6.5333C20.6952 1.3333 12.2952 1.3333 7.09521 6.5333C2.82855 10.8 2.02855 17.3333 4.96188 22.5333L3.09521 29.3333L10.1619 27.4666C12.1619 28.5333 14.2952 29.0666 16.4285 29.0666C23.7619 29.0666 29.6285 23.2 29.6285 15.8666C29.7619 12.4 28.2952 9.06663 25.8952 6.5333ZM22.2952 25.2C20.5619 26.2666 18.5619 26.9333 16.4285 26.9333C14.4285 26.9333 12.5619 26.4 10.8285 25.4666L10.4285 25.2L6.29522 26.2666L7.36188 22.2666L7.09521 21.8666C3.89521 16.5333 5.49521 9.86663 10.6952 6.5333C15.8952 3.19997 22.5619 4.9333 25.7619 9.99997C28.9619 15.2 27.4952 22 22.2952 25.2Z" fill="black"/>
</g>
</svg>
